# Blender v2.90.1 OBJ File: 'heart.blend'
# www.blender.org
mtllib heart.mtl
g Heart_Circle
v 0.001771 0.133935 -0.100000
v -0.183937 0.329265 -0.100000
v -0.360958 0.363182 -0.100000
v -0.448341 0.241124 -0.100000
v -0.499865 0.076814 -0.100000
v -0.461940 -0.114414 -0.100000
v -0.353553 -0.276626 -0.100000
v -0.000000 -0.707844 -0.100000
v 0.353553 -0.276626 -0.100000
v 0.461940 -0.114414 -0.100000
v 0.499865 0.076814 -0.100000
v 0.448341 0.241124 -0.100000
v 0.360958 0.363182 -0.100000
v 0.183936 0.329265 -0.100000
v 0.000000 0.000000 -0.100000
v 0.001771 0.133935 0.108413
v -0.183937 0.329265 0.108413
v -0.360958 0.363182 0.108413
v -0.448341 0.241124 0.108413
v -0.499865 0.076814 0.108413
v -0.461940 -0.114414 0.108413
v -0.353553 -0.276626 0.108413
v -0.000000 -0.707844 0.108413
v 0.353553 -0.276626 0.108413
v 0.461940 -0.114414 0.108413
v 0.499865 0.076814 0.108413
v 0.448341 0.241124 0.108413
v 0.360958 0.363182 0.108413
v 0.183936 0.329265 0.108413
v 0.000000 -0.000000 0.108413
v -0.415332 -0.333240 0.004207
v -0.000022 -0.839781 0.004207
v 0.415288 -0.333240 0.004207
v 0.002058 0.181972 0.004207
v -0.156212 0.383351 0.004207
v 0.542607 -0.142694 0.004207
v -0.388540 0.418326 0.004207
v 0.587157 0.081937 0.004207
v -0.526677 0.274948 0.004207
v 0.526632 0.274949 0.004207
v -0.587201 0.081937 0.004207
v 0.388495 0.418326 0.004207
v -0.542651 -0.142694 0.004207
v 0.156167 0.383351 0.004207
vt 0.000000 0.000000
vt 0.000000 0.000000
vt 0.000000 0.000000
vt 0.000000 0.000000
vt 0.000000 0.000000
vt 0.000000 0.000000
vt 0.000000 0.000000
vt 0.000000 0.000000
vt 0.000000 0.000000
vt 0.000000 0.000000
vt 0.000000 0.000000
vt 0.000000 0.000000
vt 0.000000 0.000000
vt 0.000000 0.000000
vt 0.000000 0.000000
vt 0.000000 0.000000
vt 0.000000 0.000000
vt 0.000000 0.000000
vt 0.000000 0.000000
vt 0.000000 0.000000
vt 0.000000 0.000000
vt 0.000000 0.000000
vt 0.000000 0.000000
vt 0.000000 0.000000
vt 0.000000 0.000000
vt 0.000000 0.000000
vt 0.000000 0.000000
vt 0.000000 0.000000
vt 0.000000 0.000000
vt 0.000000 0.000000
vt 0.000000 0.000000
vt 0.000000 0.000000
vt 0.000000 0.000000
vt 0.000000 0.000000
vt 0.000000 0.000000
vt 0.000000 0.000000
vt 0.000000 0.000000
vt 0.000000 0.000000
vt 0.000000 0.000000
vt 0.000000 0.000000
vt 0.000000 0.000000
vt 0.000000 0.000000
vt 0.000000 0.000000
vt 0.000000 0.000000
vn -0.0000 0.0000 -1.0000
vn 0.0000 -0.0000 1.0000
vn -0.6030 -0.4944 0.6261
vn 0.6031 -0.4945 0.6259
vn 0.6960 0.6034 0.3892
vn 0.6510 -0.4350 0.6220
vn 0.1474 0.8760 0.4592
vn 0.7614 -0.1510 0.6304
vn -0.6350 0.5395 0.5530
vn 0.7400 0.2321 0.6313
vn -0.7399 0.2320 0.6315
vn 0.6351 0.5396 0.5528
vn -0.7613 -0.1510 0.6306
vn -0.1474 0.8760 0.4593
vn -0.6509 -0.4349 0.6222
vn -0.7040 0.5967 0.3852
vn -0.7040 0.5967 -0.3852
vn -0.6509 -0.4349 -0.6222
vn -0.1474 0.8760 -0.4593
vn -0.7613 -0.1510 -0.6306
vn 0.6351 0.5396 -0.5528
vn -0.7399 0.2320 -0.6315
vn 0.7400 0.2321 -0.6313
vn -0.6350 0.5395 -0.5530
vn 0.7614 -0.1510 -0.6304
vn 0.1474 0.8760 -0.4592
vn 0.6510 -0.4350 -0.6220
vn 0.6960 0.6034 -0.3892
vn 0.6031 -0.4945 -0.6259
vn -0.6030 -0.4944 -0.6261
usemtl HeartMat
s off
f 14/1/1 13/2/1 15/3/1
f 7/4/1 6/5/1 15/3/1
f 1/6/1 14/1/1 15/3/1
f 8/7/1 7/4/1 15/3/1
f 9/8/1 8/7/1 15/3/1
f 2/9/1 1/6/1 15/3/1
f 10/10/1 9/8/1 15/3/1
f 3/11/1 2/9/1 15/3/1
f 11/12/1 10/10/1 15/3/1
f 4/13/1 3/11/1 15/3/1
f 12/14/1 11/12/1 15/3/1
f 5/15/1 4/13/1 15/3/1
f 13/2/1 12/14/1 15/3/1
f 6/5/1 5/15/1 15/3/1
f 29/16/2 30/17/2 28/18/2
f 22/19/2 30/17/2 21/20/2
f 16/21/2 30/17/2 29/16/2
f 23/22/2 30/17/2 22/19/2
f 24/23/2 30/17/2 23/22/2
f 17/24/2 30/17/2 16/21/2
f 25/25/2 30/17/2 24/23/2
f 18/26/2 30/17/2 17/24/2
f 26/27/2 30/17/2 25/25/2
f 19/28/2 30/17/2 18/26/2
f 27/29/2 30/17/2 26/27/2
f 20/30/2 30/17/2 19/28/2
f 28/18/2 30/17/2 27/29/2
f 21/20/2 30/17/2 20/30/2
f 32/31/3 23/22/3 22/19/3 31/32/3
f 33/33/4 24/23/4 23/22/4 32/31/4
f 35/34/5 17/24/5 16/21/5 34/35/5
f 36/36/6 25/25/6 24/23/6 33/33/6
f 37/37/7 18/26/7 17/24/7 35/34/7
f 38/38/8 26/27/8 25/25/8 36/36/8
f 39/39/9 19/28/9 18/26/9 37/37/9
f 40/40/10 27/29/10 26/27/10 38/38/10
f 41/41/11 20/30/11 19/28/11 39/39/11
f 42/42/12 28/18/12 27/29/12 40/40/12
f 43/43/13 21/20/13 20/30/13 41/41/13
f 44/44/14 29/16/14 28/18/14 42/42/14
f 31/32/15 22/19/15 21/20/15 43/43/15
f 34/35/16 16/21/16 29/16/16 44/44/16
f 1/6/17 34/35/17 44/44/17 14/1/17
f 7/4/18 31/32/18 43/43/18 6/5/18
f 14/1/19 44/44/19 42/42/19 13/2/19
f 6/5/20 43/43/20 41/41/20 5/15/20
f 13/2/21 42/42/21 40/40/21 12/14/21
f 5/15/22 41/41/22 39/39/22 4/13/22
f 12/14/23 40/40/23 38/38/23 11/12/23
f 4/13/24 39/39/24 37/37/24 3/11/24
f 11/12/25 38/38/25 36/36/25 10/10/25
f 3/11/26 37/37/26 35/34/26 2/9/26
f 10/10/27 36/36/27 33/33/27 9/8/27
f 2/9/28 35/34/28 34/35/28 1/6/28
f 9/8/29 33/33/29 32/31/29 8/7/29
f 8/7/30 32/31/30 31/32/30 7/4/30
